HIERARCHY
ROOT reference
{
  OFFSET 0 0 0
  CHANNELS 6 Xposition Yposition Zposition Zrotation Xrotation Yrotation
  JOINT Hips
  {
    OFFSET -7.334 48.0808 61.1586
    CHANNELS 6 Xposition Yposition Zposition Zrotation Xrotation Yrotation
    JOINT Spine
    {
      OFFSET 0 7.85829 0
      CHANNELS 6 Xposition Yposition Zposition Zrotation Xrotation Yrotation
      JOINT Spine1
      {
        OFFSET 0 25.1384 0
        CHANNELS 6 Xposition Yposition Zposition Zrotation Xrotation Yrotation
        JOINT Neck
        {
          OFFSET 0 25.0351 2.27592
          CHANNELS 6 Xposition Yposition Zposition Zrotation Xrotation Yrotation
          JOINT Head
          {
            OFFSET 0 13.4166 -1.91665
            CHANNELS 6 Xposition Yposition Zposition Zrotation Xrotation Yrotation
            End Site
            {
              OFFSET 0 23.9582 0
            }
          }
        }
        JOINT LeftShoulder
        {
          OFFSET 3.81534 24.0346 -0.234509
          CHANNELS 6 Xposition Yposition Zposition Zrotation Xrotation Yrotation
          JOINT LeftArm
          {
            OFFSET 8.62273 0 0
            CHANNELS 6 Xposition Yposition Zposition Zrotation Xrotation Yrotation
            JOINT LeftForeArm
            {
              OFFSET 31.7064 0 0
              CHANNELS 6 Xposition Yposition Zposition Zrotation Xrotation Yrotation
              JOINT LeftHand
              {
                OFFSET 23.7731 0 0
                CHANNELS 6 Xposition Yposition Zposition Zrotation Xrotation Yrotation
                End Site
                {
                  OFFSET 14.3749 0 0
                }
              }
            }
          }
        }
        JOINT RightShoulder
        {
          OFFSET -3.83608 24.0346 -0.234509
          CHANNELS 6 Xposition Yposition Zposition Zrotation Xrotation Yrotation
          JOINT RightArm
          {
            OFFSET -8.62273 0 0
            CHANNELS 6 Xposition Yposition Zposition Zrotation Xrotation Yrotation
            JOINT RightForeArm
            {
              OFFSET -31.7064 0 0
              CHANNELS 6 Xposition Yposition Zposition Zrotation Xrotation Yrotation
              JOINT RightHand
              {
                OFFSET -23.7731 0 0
                CHANNELS 6 Xposition Yposition Zposition Zrotation Xrotation Yrotation
                End Site
                {
                  OFFSET -14.3749 0 0
                }
              }
            }
          }
        }
      }
    }
    JOINT LeftUpLeg
    {
      OFFSET 9.58328 0 0
      CHANNELS 6 Xposition Yposition Zposition Zrotation Xrotation Yrotation
      JOINT LeftLeg
      {
        OFFSET 0 -36.4535 0
        CHANNELS 6 Xposition Yposition Zposition Zrotation Xrotation Yrotation
        JOINT LeftFoot
        {
          OFFSET 0 -41.4659 0
          CHANNELS 6 Xposition Yposition Zposition Zrotation Xrotation Yrotation
          JOINT LeftToeBase
          {
            OFFSET 0 -6.22913 14.3749
            CHANNELS 6 Xposition Yposition Zposition Zrotation Xrotation Yrotation
            End Site
            {
              OFFSET 0 0 3.83331
            }
          }
        }
      }
    }
    JOINT RightUpLeg
    {
      OFFSET -9.58328 0 0
      CHANNELS 6 Xposition Yposition Zposition Zrotation Xrotation Yrotation
      JOINT RightLeg
      {
        OFFSET 0 -36.4535 0
        CHANNELS 6 Xposition Yposition Zposition Zrotation Xrotation Yrotation
        JOINT RightFoot
        {
          OFFSET 0 -41.4659 0
          CHANNELS 6 Xposition Yposition Zposition Zrotation Xrotation Yrotation
          JOINT RightToeBase
          {
            OFFSET 0 -6.22913 14.3749
            CHANNELS 6 Xposition Yposition Zposition Zrotation Xrotation Yrotation
            End Site
            {
              OFFSET 0 0 3.83331
            }
          }
        }
      }
    }
  }
}
MOTION
Frames:	4
Frame Time:	0.004
0 0 0 0 0 -0 -14.5482 78.7151 -194.803 -0.0669219 0.0329011 2.09919 0 7.85829 0 -1.79899 -10.1395 -0.935885 -3.55271e-015 25.1384 0 1.52975 0.992001 -0.775455 -1.77636e-015 25.0351 2.27592 -1.32713 34.2212 0.890451 0 13.4166 -1.91665 -1.23909 -6.76849 0.438309 3.81534 24.0346 -0.234509 10.1279 2.82422 2.91075 8.62273 -2.84217e-014 2.84217e-014 -10.1939 7.13757 -2.95047 31.7064 0 -2.84217e-014 3.41965 -5.80541 0.924126 23.7731 -2.84217e-014 0 9.73301 -5.90211 -0.817572 -3.83608 24.0346 -0.234509 -9.32711 1.35545 7.80732 -8.62273 0 0 3.79076 -1.34663 -0.647241 -31.7064 -2.84217e-014 0 -2.86361 -2.7744 1.07518 -23.7731 -2.84217e-014 0 -8.14103 -2.81043 0.886153 9.58328 0 -2.84217e-014 0.754019 7.80939 -0.205021 0 -36.4535 0 -8.97111 -4.87829 0.698522 -1.77636e-015 -41.4659 0 8.27646 -6.23363 8.06723 -7.10543e-015 -6.22913 14.3749 1.10348e-032 3.97569e-016 -1.59028e-015 -9.58328 -1.42109e-014 0 -0.991131 -0.323601 0.003469 3.55271e-015 -36.4535 2.84217e-014 3.98163 10.6739 5.64771 0 -41.4659 -2.84217e-014 -10.635 -12.6905 -16.3261 0 -6.22913 14.3749 1.14301e-015 -7.95139e-016 -0 
0 0 0 0 0 -0 -14.5482 78.7151 -194.803 -0.057141 0.0329011 2.09919 8.88178e-016 7.85829 2.84217e-014 -1.78999 -10.1373 -0.929866 0 25.1384 0 1.49975 1.01348 -0.77546 -1.77636e-015 25.0351 2.27592 -1.30456 34.2244 0.890485 0 13.4166 -1.91665 -1.26274 -6.79049 0.438329 3.81534 24.0346 -0.234509 10.1348 2.82423 2.90583 8.62273 0 0 -10.224 7.14966 -2.95266 31.7064 2.84217e-014 -2.84217e-014 3.37479 -5.71184 0.936224 23.7731 0 -2.84217e-014 9.77118 -5.82052 -0.955025 -3.83608 24.0346 -0.234509 -9.31166 1.36983 7.80737 -8.62273 2.84217e-014 2.84217e-014 3.79367 -1.34663 -0.647241 -31.7064 2.84217e-014 -2.84217e-014 -2.86411 -2.74754 1.07516 -23.7731 -2.84217e-014 0 -8.27242 -2.78096 0.833545 9.58328 0 0 0.744577 7.80298 -0.205018 1.77636e-015 -36.4535 -5.68434e-014 -8.97277 -4.88757 0.725111 -1.77636e-015 -41.4659 2.84217e-014 8.2595 -6.22378 8.05162 -3.55271e-015 -6.22913 14.3749 -0 0 1.59028e-015 -9.58328 0 0 -0.991119 -0.352512 0.005134 3.55271e-015 -36.4535 0 3.98246 10.7032 5.62809 0 -41.4659 0 -11.3872 -12.6169 -16.3627 0 -6.22913 14.3749 -3.97569e-016 0 1.59028e-015 
0 0 0 0 0 -0 -14.5524 78.7151 -194.803 -0.068762 0.028915 2.09919 -1.77636e-015 7.85829 0 -1.76303 -10.1232 -0.924396 1.77636e-015 25.1384 0 1.47596 1.01852 -0.775461 0 25.0351 2.27592 -1.29177 34.2388 0.890638 0 13.4166 -1.91665 -1.28009 -6.82344 0.438359 3.81534 24.0346 -0.234509 10.1376 2.83034 2.9213 8.62273 0 2.84217e-014 -10.2321 7.20244 -2.97564 31.7064 -2.84217e-014 0 3.39248 -5.75179 0.950777 23.7731 0 2.84217e-014 9.76913 -5.86119 -0.957122 -3.83608 24.0346 -0.234509 -9.30517 1.36404 7.80735 -8.62273 0 0 3.80272 -1.34663 -0.647241 -31.7064 -2.84217e-014 -2.84217e-014 -2.86419 -2.74337 1.07516 -23.7731 0 -2.84217e-014 -8.28802 -2.77616 0.824013 9.58328 0 -2.84217e-014 0.763506 7.79903 -0.195911 0 -36.4535 0 -8.98158 -4.87479 0.68869 0 -41.4659 0 8.28903 -6.23797 8.08611 3.55271e-015 -6.22913 14.3749 -9.93923e-017 -3.97569e-016 4.77083e-015 -9.58328 -1.42109e-014 0 -0.973239 -0.360707 0.026933 0 -36.4535 2.84217e-014 3.98454 10.709 5.614 0 -41.4659 0 -10.7495 -12.6687 -16.3293 0 -6.22913 14.3749 -4.47266e-016 7.95139e-016 -7.95139e-016 
0 0 0 0 0 -0 -14.5545 78.7151 -194.807 -0.051098 0.047276 2.10436 -1.77636e-015 7.85829 2.84217e-014 -1.78536 -10.1429 -0.922514 0 25.1384 2.84217e-014 1.49419 1.03866 -0.775466 -1.77636e-015 25.0351 2.27592 -1.31401 34.2348 0.890595 0 13.4166 -1.91665 -1.2638 -6.82746 0.438363 3.81534 24.0346 -0.234509 10.118 2.81449 2.9128 8.62273 2.84217e-014 2.84217e-014 -10.2352 7.15244 -2.96514 31.7064 -2.84217e-014 0 3.37651 -5.74146 0.929721 23.7731 0 0 9.74957 -5.84809 -0.935223 -3.83608 24.0346 -0.234509 -9.32879 1.37516 7.80739 -8.62273 0 2.84217e-014 3.81283 -1.35313 -0.637986 -31.7064 0 0 -2.8641 -2.75136 1.07395 -23.7731 5.68434e-014 0 -8.25923 -2.78555 0.843788 9.58328 1.42109e-014 2.84217e-014 0.736566 7.77552 -0.217437 0 -36.4535 0 -8.96141 -4.87746 0.71907 0 -41.4659 0 8.26647 -6.20343 8.06141 -3.55271e-015 -6.22913 14.3749 -9.93923e-017 3.97569e-016 -3.18055e-015 -9.58328 -1.42109e-014 0 -1.00127 -0.390994 0.01061 0 -36.4535 0 3.99099 10.7339 5.62799 -3.55271e-015 -41.4659 0 -11.3667 -12.61 -16.3533 0 -6.22913 14.3749 4.47266e-016 0 1.59028e-015 
